<svg width="44" height="43" viewBox="0 0 44 43" fill="none" xmlns="http://www.w3.org/2000/svg">
<path id="Vector" d="M22 0.333374C19.1547 0.333374 16.3372 0.893799 13.7085 1.98265C11.0798 3.0715 8.69127 4.66746 6.67933 6.67939C2.61604 10.7427 0.333313 16.2537 0.333313 22C0.333313 31.5767 6.55165 39.7017 15.1533 42.5834C16.2366 42.7567 16.5833 42.085 16.5833 41.5V37.8384C10.5816 39.1384 9.30331 34.935 9.30331 34.935C8.30665 32.4217 6.89831 31.75 6.89831 31.75C4.92665 30.4067 7.04998 30.45 7.04998 30.45C9.21665 30.6017 10.365 32.6817 10.365 32.6817C12.25 35.975 15.435 35 16.67 34.48C16.865 33.0717 17.4283 32.1184 18.035 31.5767C13.225 31.035 8.17665 29.1717 8.17665 20.9167C8.17665 18.5117 8.99998 16.5834 10.4083 15.045C10.1916 14.5034 9.43331 12.25 10.625 9.32504C10.625 9.32504 12.445 8.74004 16.5833 11.535C18.295 11.0584 20.1583 10.82 22 10.82C23.8416 10.82 25.705 11.0584 27.4166 11.535C31.555 8.74004 33.375 9.32504 33.375 9.32504C34.5666 12.25 33.8083 14.5034 33.5916 15.045C35 16.5834 35.8233 18.5117 35.8233 20.9167C35.8233 29.1934 30.7533 31.0134 25.9216 31.555C26.7016 32.2267 27.4166 33.5484 27.4166 35.5634V41.5C27.4166 42.085 27.7633 42.7784 28.8683 42.5834C37.47 39.68 43.6666 31.5767 43.6666 22C43.6666 19.1547 43.1062 16.3373 42.0174 13.7086C40.9285 11.0798 39.3326 8.69133 37.3206 6.67939C35.3087 4.66746 32.9202 3.0715 30.2915 1.98265C27.6627 0.893799 24.8453 0.333374 22 0.333374Z" fill="white"/>
</svg>
